<svg width="17" height="17" viewBox="0 0 17 17" fill="none" xmlns="http://www.w3.org/2000/svg">
<path d="M8.76567 14.3438H3.16762C3.10023 14.3446 3.03333 14.332 2.97089 14.3066C2.90845 14.2813 2.85173 14.2436 2.80407 14.196C2.75641 14.1483 2.71878 14.0916 2.6934 14.0292C2.66802 13.9667 2.6554 13.8998 2.65629 13.8324V8.23438C2.65629 6.61407 3.29996 5.06012 4.44569 3.91439C5.59142 2.76866 7.14536 2.125 8.76567 2.125V2.125C9.56796 2.125 10.3624 2.28302 11.1036 2.59005C11.8448 2.89707 12.5183 3.34709 13.0856 3.91439C13.653 4.4817 14.103 5.15519 14.41 5.89642C14.717 6.63764 14.875 7.43208 14.875 8.23438V8.23438C14.875 9.03667 14.717 9.83111 14.41 10.5723C14.103 11.3136 13.653 11.987 13.0856 12.5544C12.5183 13.1217 11.8448 13.5717 11.1036 13.8787C10.3624 14.1857 9.56796 14.3438 8.76567 14.3438V14.3438Z" stroke="#FFFCFC" stroke-width="1.0625" stroke-linecap="round" stroke-linejoin="round"/>
<path d="M6.64062 7.4375H10.625" stroke="#FFFCFC" stroke-width="1.0625" stroke-linecap="round" stroke-linejoin="round"/>
<path d="M6.64062 9.5625H10.625" stroke="#FFFCFC" stroke-width="1.0625" stroke-linecap="round" stroke-linejoin="round"/>
</svg>
