<svg width="25" height="25" viewBox="0 0 25 25" fill="none" xmlns="http://www.w3.org/2000/svg">
<g clip-path="url(#clip0_47_11)">
<path d="M19.0824 8.45604C19.0824 8.89646 18.7254 9.25388 18.2848 9.25388H6.71566C6.27483 9.25388 5.91817 8.8964 5.91817 8.45604C5.91817 8.0155 6.27483 7.65802 6.71566 7.65802H18.2848C18.7254 7.65802 19.0824 8.01556 19.0824 8.45604ZM18.2848 12.4184H6.71566C6.27483 12.4184 5.91817 12.7756 5.91817 13.2162C5.91817 13.6568 6.27483 14.0142 6.71566 14.0142H18.2848C18.7254 14.0142 19.0824 13.6568 19.0824 13.2162C19.0824 12.7756 18.7254 12.4184 18.2848 12.4184ZM25 10.5029C25 14.0759 22.7489 17.4282 19.1055 19.3116C16.4146 24.7103 10.2654 24.8689 9.56217 24.8689H9.56175L9.46387 24.8673C9.1154 24.8571 8.81406 24.6208 8.71986 24.2855C8.62602 23.9506 8.75863 23.5932 9.04995 23.4024C10.1954 22.6537 11.1105 21.8012 11.7842 20.8585C5.22361 20.5496 0 16.0229 0 10.503C0 4.7837 5.60723 0.131104 12.5 0.131104C19.3926 0.131459 25 4.7837 25 10.5029ZM23.4041 10.5029C23.4041 5.6643 18.5122 1.72649 12.5004 1.72649C6.48748 1.72649 1.59604 5.66424 1.59604 10.5029C1.59604 15.3423 6.48777 19.2798 12.5004 19.2798C12.7158 19.2798 12.9302 19.2734 13.1434 19.263C13.1558 19.2624 13.1688 19.2624 13.1817 19.2624C13.4476 19.2624 13.6982 19.3954 13.8457 19.6186C14.0017 19.8521 14.0223 20.1506 13.9013 20.4042C13.473 21.3002 12.8901 22.1346 12.1584 22.901C14.0478 22.3941 16.4753 21.1983 17.7811 18.3851C17.858 18.2197 17.99 18.0854 18.1536 18.0046C21.4411 16.3938 23.4041 13.5886 23.4041 10.5029Z" fill="#6E0085"/>
</g>
<defs>
<clipPath id="clip0_47_11">
<rect width="25" height="25" fill="white"/>
</clipPath>
</defs>
</svg>
