<svg width="21" height="24" viewBox="0 0 21 24" fill="none" xmlns="http://www.w3.org/2000/svg">
<path d="M9.97129 0.0670185C9.27459 0.245209 8.736 0.728195 8.49388 1.37999C8.42965 1.55349 8.4 1.83484 8.38024 2.44913L8.35059 3.2885L7.93059 3.44324C6.972 3.79024 6.15176 4.27792 5.45012 4.91096C4.536 5.74095 3.89859 6.68348 3.51318 7.78544C3.17718 8.73734 3.17718 8.74203 3.13765 11.368C3.09812 13.8767 3.07835 14.1159 2.84118 14.9318C2.70282 15.3913 2.57929 15.6867 2.30259 16.2119C1.94682 16.8825 1.50706 17.4358 0.835059 18.0735C0.0691765 18.7957 0 18.9176 0 19.5037C0 19.8789 0.0197647 19.982 0.113647 20.1508C0.286588 20.4603 0.548471 20.7089 0.854824 20.8495L1.13647 20.9808L3.98753 20.9949L6.84353 21.009L6.87318 21.1356C7.03129 21.8296 7.32282 22.3735 7.76753 22.8284C8.46918 23.5552 9.26965 23.9257 10.2727 23.9913C11.3548 24.0616 12.3085 23.7053 13.1188 22.9315C13.6722 22.4017 13.9489 21.9093 14.1268 21.1356L14.1565 21.009L17.0125 20.9949L19.8635 20.9808L20.1452 20.8495C20.4515 20.7089 20.7134 20.4603 20.8864 20.1508C20.9802 19.982 21 19.8789 21 19.5037C21 18.9129 20.9259 18.791 20.1649 18.0735C19.1471 17.1122 18.5245 16.1369 18.1539 14.9224C17.9266 14.1674 17.9019 13.8673 17.8624 11.368C17.8228 8.74672 17.8179 8.73734 17.4918 7.7995C17.1064 6.69285 16.464 5.73626 15.5499 4.91096C14.8482 4.27792 14.028 3.79024 13.0694 3.44324L12.6494 3.2885L12.6198 2.44913C12.5951 1.77389 12.5704 1.56287 12.4913 1.34717C12.1059 0.35306 11.0188 -0.200266 9.97129 0.0670185ZM11.0089 1.13147C11.1226 1.19242 11.2807 1.32841 11.3647 1.44095C11.5129 1.64259 11.5129 1.65197 11.5278 2.3319L11.5426 3.02121H10.5049H9.46235V2.39755C9.46235 1.9427 9.48212 1.72699 9.53647 1.60039C9.77859 1.05644 10.4555 0.840736 11.0089 1.13147ZM11.6464 4.10442C13.9045 4.51238 15.7821 6.05981 16.4986 8.10899C16.7802 8.92022 16.7852 8.98587 16.8247 11.5555C16.8593 14.1205 16.8791 14.3362 17.1558 15.2366C17.5758 16.6105 18.4751 17.9985 19.5176 18.8754C19.9871 19.274 20.0711 19.4522 19.908 19.7429C19.7499 20.0383 20.3478 20.0195 10.5 20.0195C0.652235 20.0195 1.25012 20.0383 1.092 19.7429C0.928941 19.4522 1.01294 19.274 1.48235 18.8754C2.52494 17.9985 3.42424 16.6105 3.84424 15.2366C4.116 14.3409 4.13576 14.1205 4.17529 11.5555C4.21482 8.99056 4.21976 8.91553 4.50141 8.10899C4.98565 6.72568 6.05788 5.49711 7.42659 4.7609C8.08871 4.40453 8.99788 4.12786 9.81812 4.02939C10.2776 3.97781 11.1226 4.01063 11.6464 4.10442ZM13.0496 21.1309C12.9805 21.4122 12.6791 21.9327 12.4468 22.1719C11.9379 22.7065 11.2955 22.9784 10.5247 22.9878C9.75388 22.9925 9.08188 22.7158 8.57294 22.1906C8.32588 21.9327 8.02447 21.4216 7.95035 21.1309L7.92071 21.0043H10.5H13.0793L13.0496 21.1309Z" fill="#6E0085"/>
</svg>
