<svg width="21" height="18" viewBox="0 0 21 18" fill="none" xmlns="http://www.w3.org/2000/svg">
<path d="M9.5 4.90627C9.5 2.92971 11.1621 1.28557 13.1387 1.31252C13.8309 1.32051 14.506 1.52825 15.083 1.91077C15.66 2.29329 16.1142 2.8343 16.391 3.46877H19.5625L16.6605 6.37072C16.4733 9.28577 15.1829 12.0201 13.0517 14.0177C10.9205 16.0154 8.10855 17.1265 5.1875 17.125C2.3125 17.125 1.59375 16.0469 1.59375 16.0469C1.59375 16.0469 4.46875 14.9688 5.90625 12.8125C5.90625 12.8125 0.156247 9.93752 1.59375 2.03127C1.59375 2.03127 5.1875 5.62502 9.5 6.34377V4.90627Z" stroke="white" stroke-width="1.4375" stroke-linecap="round" stroke-linejoin="round"/>
</svg>
