<svg width="23" height="23" viewBox="0 0 23 23" fill="none" xmlns="http://www.w3.org/2000/svg">
<path d="M11.5 7.90627C11.5 5.92971 13.1621 4.28557 15.1387 4.31252C15.8309 4.32051 16.506 4.52825 17.083 4.91077C17.66 5.29329 18.1142 5.8343 18.391 6.46877H21.5625L18.6605 9.37072C18.4733 12.2858 17.1829 15.0201 15.0517 17.0177C12.9205 19.0154 10.1086 20.1265 7.1875 20.125C4.3125 20.125 3.59375 19.0469 3.59375 19.0469C3.59375 19.0469 6.46875 17.9688 7.90625 15.8125C7.90625 15.8125 2.15625 12.9375 3.59375 5.03127C3.59375 5.03127 7.1875 8.62502 11.5 9.34377V7.90627Z" stroke="white" stroke-width="1.4375" stroke-linecap="round" stroke-linejoin="round"/>
</svg>
